# xmcd
#
# Track frame offsets: 
#        150
#        11757
#        24006
#        38781
#        53762
#        67512
#        81676
#        101986
#        115129
#        128885
#        141146
#        151350
#
# Disc length: 2201 seconds
#
# Revision: 0
# Processed by: cddbd v1.5.1PL0 Copyright (c) Steve Scherf et al.
# Submitted via: ExactAudioCopy v0.95b3
#
DISCID=9708970c
DTITLE=The Blue Ridge Rangers - The Blue Ridge Rangers
DYEAR=1973
DGENRE=Country
TTITLE0=Blue Ridge Mountain blues
TTITLE1=Somewhere listening (for my name)
TTITLE2=You're the reason
TTITLE3=Jambalaya
TTITLE4=She thinks I still care
TTITLE5=Califonia blues
TTITLE6=Workin' on a building
TTITLE7=Please help me I'm falling
TTITLE8=Have thine own way, Lord
TTITLE9=I ain't never
TTITLE10=Hearts of stone
TTITLE11=Today I started loving you again
EXTD=
EXTT0=
EXTT1=
EXTT2=
EXTT3=
EXTT4=
EXTT5=
EXTT6=
EXTT7=
EXTT8=
EXTT9=
EXTT10=
EXTT11=
PLAYORDER=
